# Blender v2.80 (sub 75) OBJ File: ''
# www.blender.org
o 111
v 0.000000 8.000000 0.000000
v 0.000000 -0.000000 0.000000
v 0.000000 -0.000000 20.000000
v 0.000000 8.000000 20.000000
v 12.994667 8.000000 15.192001
v 20.000000 8.000000 16.000000
v 13.333000 8.000000 14.989000
v 4.000000 12.000000 10.000000
v 4.000000 8.000000 10.000000
v 4.028999 8.000000 10.587999
v 4.028999 12.000000 10.587999
v 8.829000 8.000000 4.115002
v 8.257999 8.000000 4.257999
v 8.257999 12.000000 4.257999
v 8.829000 12.000000 4.115002
v 13.806000 8.000000 14.638000
v 14.989000 8.000000 13.333000
v 15.292000 8.000000 12.827999
v 15.292000 12.000000 12.827999
v 14.989000 12.000000 13.333000
v 14.243000 8.000000 14.243000
v 15.543000 8.000000 12.296000
v 15.543000 12.000000 12.296000
v 14.638000 8.000000 13.806000
v 4.115000 8.000000 11.171000
v 4.115000 12.000000 11.171000
v 5.757000 8.000000 14.243000
v 4.000000 8.000000 15.192001
v 6.194000 8.000000 14.638000
v 15.742000 8.000000 11.742001
v 15.742000 12.000000 11.742001
v 12.296000 8.000000 4.457001
v 20.000000 8.000000 0.000000
v 11.742001 8.000000 4.257999
v 13.333000 12.000000 5.011002
v 12.827999 12.000000 4.708000
v 13.806000 12.000000 5.362000
v 14.243000 12.000000 5.757000
v 14.989000 12.000000 6.667000
v 14.638000 12.000000 6.194000
v 15.885000 8.000000 11.171000
v 4.257999 8.000000 11.742001
v 4.257999 12.000000 11.742001
v 7.704000 8.000000 4.457001
v 7.704000 12.000000 4.457001
v 15.885000 12.000000 11.171000
v 4.424000 8.000000 12.204130
v 12.827999 8.000000 15.292000
v 12.615999 8.000000 15.392021
v 12.296000 8.000000 15.542999
v 6.667000 8.000000 14.989000
v 15.896064 8.000000 11.096001
v 15.971000 12.000000 10.587999
v 10.000000 12.000000 16.000000
v 10.000000 8.000000 16.000000
v 10.587999 8.000000 15.971001
v 10.587999 12.000000 15.971001
v 7.172001 8.000000 4.708000
v 7.172001 12.000000 4.708000
v 4.811199 8.000000 7.000000
v 4.000000 8.000000 0.000000
v 4.708000 8.000000 7.172001
v 10.000000 8.000000 4.000000
v 9.412001 8.000000 4.028999
v 6.667000 8.000000 5.011002
v 6.667000 12.000000 5.011002
v 12.827999 12.000000 15.292000
v 4.457001 8.000000 7.704000
v 6.194000 8.000000 5.362000
v 6.194000 12.000000 5.362000
v 4.457001 8.000000 12.296000
v 15.971000 12.000000 9.412001
v 12.296000 12.000000 4.457001
v 11.742001 12.000000 4.257999
v 16.000000 12.000000 10.000000
v 5.757000 12.000000 5.757000
v 5.362000 12.000000 6.194000
v 5.011000 12.000000 6.667000
v 9.412001 12.000000 4.028999
v 10.000000 12.000000 4.000000
v 11.171000 12.000000 4.115002
v 10.587999 12.000000 4.028999
v 20.000000 -0.000000 0.000000
v 20.000000 -0.000000 20.000000
v 20.000000 8.000000 20.000000
v 4.708000 8.000000 12.827999
v 5.011000 8.000000 13.333000
v 11.171000 8.000000 15.885000
v 11.171000 12.000000 15.885000
v 5.362000 8.000000 13.806000
v 4.257999 8.000000 8.257999
v 4.424000 8.000000 7.795870
v 4.708000 12.000000 7.172001
v 7.005333 8.000000 15.192001
v 8.351999 8.000000 16.000000
v 15.543000 12.000000 7.704000
v 15.742000 12.000000 8.257999
v 15.885000 12.000000 8.829000
v 15.292000 12.000000 7.172001
v 4.115000 8.000000 8.829000
v 5.757000 8.000000 5.757000
v 4.457001 12.000000 7.704000
v 4.028999 8.000000 9.412001
v 5.362000 8.000000 6.194000
v 5.011000 8.000000 6.667000
v 4.457001 12.000000 12.296000
v 13.333000 12.000000 14.989000
v 13.806000 12.000000 14.638000
v 14.243000 12.000000 14.243000
v 14.638000 12.000000 13.806000
v 15.971000 8.000000 9.412001
v 16.000000 8.000000 10.000000
v 15.971000 8.000000 10.587999
v 10.587999 8.000000 4.028999
v 11.171000 8.000000 4.115002
v 4.708000 12.000000 12.827999
v 11.742001 8.000000 15.742001
v 11.742001 12.000000 15.742001
v 5.011000 12.000000 13.333000
v 12.296000 12.000000 15.542999
v 15.292000 8.000000 7.172001
v 15.543000 8.000000 7.704000
v 14.243000 8.000000 5.757000
v 14.638000 8.000000 6.194000
v 14.989000 8.000000 6.667000
v 5.362000 12.000000 13.806000
v 7.172001 8.000000 15.292000
v 7.172001 12.000000 15.292000
v 7.704000 8.000000 15.542999
v 7.704000 12.000000 15.542999
v 5.757000 12.000000 14.243000
v 8.257999 8.000000 15.742001
v 8.257999 12.000000 15.742001
v 13.806000 8.000000 5.362000
v 15.885000 8.000000 8.829000
v 8.829000 8.000000 15.885000
v 8.829000 12.000000 15.885000
v 6.194000 12.000000 14.638000
v 9.412001 8.000000 15.971001
v 9.412001 12.000000 15.971001
v 15.742000 8.000000 8.257999
v 13.333000 8.000000 5.011002
v 6.667000 12.000000 14.989000
v 12.827999 8.000000 4.708000
v 4.257999 12.000000 8.257999
v 4.115000 12.000000 8.829000
v 4.028999 12.000000 9.412001
vt 0.545455 0.480739
vt 0.727273 0.480739
vt 0.727273 0.937753
vt 0.545455 0.937753
vt 0.295333 0.115570
vt 0.454545 0.096148
vt 0.303023 0.120449
vt 1.000000 0.133893
vt 0.909091 0.133892
vt 0.909091 0.120240
vt 1.000000 0.120240
vt 0.727273 0.881273
vt 0.727273 0.867131
vt 0.818182 0.867131
vt 0.818182 0.881273
vt 0.313773 0.128886
vt 0.909091 0.792833
vt 0.909091 0.805811
vt 0.818182 0.805811
vt 0.818182 0.792833
vt 0.323705 0.138381
vt 0.909091 0.819271
vt 0.818182 0.819271
vt 0.332682 0.148885
vt 0.909091 0.106277
vt 1.000000 0.106277
vt 0.130841 0.138381
vt 0.090909 0.115570
vt 0.140773 0.128886
vt 0.909091 0.833094
vt 0.818182 0.833094
vt 0.340659 0.160254
vt 0.347545 0.172393
vt 0.353250 0.185181
vt 0.279454 0.373606
vt 0.454545 0.480739
vt 0.266864 0.378390
vt 0.909382 0.488984
vt 0.921752 0.494392
vt 0.896570 0.484882
vt 0.883442 0.482104
vt 0.856730 0.480739
vt 0.870117 0.480739
vt 0.361023 0.212222
vt 0.357773 0.198497
vt 0.909091 0.092162
vt 1.000000 0.092162
vt 0.727273 0.853100
vt 0.818182 0.853100
vt 0.909091 0.847148
vt 0.818182 0.847148
vt 0.909091 0.080364
vt 0.291545 0.113166
vt 0.286727 0.110762
vt 0.279455 0.107133
vt 0.151523 0.120449
vt 0.909091 0.848970
vt 0.818182 0.861311
vt 0.909091 0.271162
vt 1.000000 0.271162
vt 1.000000 0.285307
vt 0.909091 0.285307
vt 0.727273 0.839320
vt 0.818182 0.839320
vt 0.109345 0.312480
vt 0.090909 0.480739
vt 0.107000 0.308346
vt 0.227273 0.384591
vt 0.213909 0.383894
vt 0.727273 0.825908
vt 0.818182 0.825908
vt 1.000000 0.340277
vt 0.909091 0.340277
vt 1.000000 0.335006
vt 0.101295 0.295558
vt 0.090909 0.240370
vt 0.000000 0.000000
vt 0.000000 0.480739
vt 0.200659 0.381827
vt 1.000000 0.344462
vt 0.727273 0.813001
vt 0.818182 0.813001
vt 0.100545 0.187389
vt 0.101295 0.185181
vt 0.995730 0.589704
vt 0.793331 0.501103
vt 0.991859 0.576160
vt 0.933538 0.501066
vt 0.944673 0.508909
vt 0.986735 0.563090
vt 0.998354 0.603568
vt 0.782207 0.508966
vt 0.999663 0.617657
vt 0.999663 0.631814
vt 0.998373 0.645908
vt 0.995746 0.659792
vt 0.991868 0.673342
vt 0.771868 0.517948
vt 0.980409 0.550604
vt 0.972974 0.538839
vt 0.955016 0.517882
vt 0.964482 0.527904
vt 0.363636 0.856485
vt 0.545455 0.480739
vt 0.545455 0.950422
vt 0.363636 0.950422
vt 0.187682 0.378390
vt 0.363636 0.957449
vt 0.181818 0.576081
vt 0.363636 0.480739
vt 0.181818 0.480739
vt 0.107000 0.172393
vt 0.175091 0.373606
vt 0.113886 0.160254
vt 1.000000 0.299440
vt 0.909091 0.299440
vt 0.121864 0.148885
vt 0.096773 0.282242
vt 0.100545 0.293350
vt 0.163000 0.367573
vt 0.727273 0.772131
vt 0.727273 0.768826
vt 0.818182 0.768826
vt 0.159212 0.115570
vt 0.454545 0.000000
vt 0.227273 0.096148
vt 0.189818 0.096148
vt 0.830301 0.484899
vt 0.817494 0.488994
vt 0.805136 0.494412
vt 0.843410 0.482124
vt 0.093523 0.268517
vt 0.454545 0.480739
vt 0.454545 0.000000
vt 0.909091 0.000000
vt 0.909091 0.480739
vt 0.727273 0.800714
vt 0.818182 0.800714
vt 0.151523 0.360290
vt 0.181818 0.959955
vt 0.000000 0.959955
vt 0.181818 0.480739
vt 0.000000 0.480739
vt 0.909091 0.193234
vt 0.909091 0.182949
vt 1.000000 0.182949
vt 1.000000 0.193234
vt 0.091568 0.254503
vt 0.181818 0.957449
vt 0.140773 0.351853
vt 0.727273 0.789198
vt 0.818182 0.789198
vt 0.909091 0.181096
vt 0.363636 0.480739
vt 0.096773 0.198497
vt 0.091568 0.226236
vt 0.727273 0.778530
vt 0.818182 0.778530
vt 0.130841 0.342358
vt 0.909091 0.078019
vt 1.000000 0.078019
vt 0.762392 0.527959
vt 0.986754 0.686425
vt 0.753908 0.538898
vt 0.746492 0.550675
vt 0.728582 0.645997
vt 0.727273 0.631909
vt 0.727273 0.617751
vt 0.728564 0.603658
vt 0.731190 0.589773
vt 0.735069 0.576223
vt 0.740182 0.563141
vt 0.093523 0.212222
vt 0.362977 0.254503
vt 0.363636 0.240370
vt 0.362977 0.226236
vt 0.121864 0.331854
vt 0.240636 0.383894
vt 0.253886 0.381827
vt 0.909091 0.063990
vt 1.000000 0.063990
vt 0.909091 0.861311
vt 1.000000 0.313395
vt 0.909091 0.313395
vt 0.113886 0.320485
vt 0.909091 0.050191
vt 1.000000 0.050191
vt 1.000000 0.327050
vt 0.909091 0.327050
vt 0.909091 0.875417
vt 0.818182 0.875417
vt 0.347545 0.308346
vt 0.353250 0.295558
vt 0.323705 0.342358
vt 0.332682 0.331854
vt 0.340659 0.320485
vt 0.253886 0.098912
vt 0.240636 0.096845
vt 0.909091 0.036765
vt 1.000000 0.036765
vt 0.909091 0.889342
vt 0.818182 0.889342
vt 1.000000 0.204755
vt 0.909091 0.204755
vt 1.000000 0.200953
vt 0.361274 0.214025
vt 1.000000 0.217022
vt 0.909091 0.217022
vt 0.909091 0.023833
vt 1.000000 0.023833
vt 1.000000 0.229916
vt 0.909091 0.229916
vt 0.266864 0.102349
vt 0.313773 0.351853
vt 0.909091 0.902971
vt 0.818182 0.902971
vt 1.000000 0.243324
vt 0.909091 0.243324
vt 0.909091 0.011548
vt 1.000000 0.011548
vt 1.000000 0.257129
vt 0.909091 0.257129
vt 0.357773 0.282242
vt 0.361023 0.268517
vt 0.303023 0.360290
vt 0.909091 0.916137
vt 0.818182 0.916137
vt 0.909091 0.000000
vt 1.000000 0.000000
vt 0.291545 0.367573
vt 0.909091 0.928724
vt 0.818182 0.928724
vt 0.909442 0.760572
vt 0.896635 0.764666
vt 0.980444 0.698890
vt 0.883526 0.767441
vt 0.870206 0.768826
vt 0.856819 0.768826
vt 0.843494 0.767461
vt 0.830366 0.764684
vt 0.817554 0.760581
vt 0.805184 0.755174
vt 0.793398 0.748500
vt 1.000000 0.193234
vt 0.909091 0.193234
vt 0.909091 0.940625
vt 0.818182 0.940625
vt 0.909091 0.171774
vt 1.000000 0.171774
vt 0.909091 0.951721
vt 0.818182 0.951721
vt 0.909091 0.159793
vt 1.000000 0.159793
vt 0.909091 0.147112
vt 1.000000 0.147112
vt 0.175091 0.107133
vt 0.163000 0.113166
vt 0.921800 0.755153
vt 0.933605 0.748462
vt 0.944729 0.740600
vt 0.973028 0.710667
vt 0.964544 0.721606
vt 0.955068 0.731617
vt 1.000000 0.352957
vt 0.909091 0.352957
vt 1.000000 0.364961
vt 0.909091 0.364961
vt 0.187682 0.102349
vt 0.746527 0.698961
vt 0.753962 0.710727
vt 0.740201 0.686476
vt 0.735078 0.673406
vt 0.731206 0.659861
vt 0.762455 0.721661
vt 0.782263 0.740657
vt 0.771920 0.731683
vt 1.000000 0.376187
vt 0.909091 0.376187
vt 0.200659 0.098912
vt 0.909091 0.961905
vt 0.818182 0.961905
vt 0.909091 0.971094
vt 0.818182 0.971094
vt 0.909091 0.768826
vt 0.909091 0.780469
vt 0.818182 0.780469
vt 0.818182 0.768826
vt 0.727273 1.000000
vt 0.727273 0.991762
vt 0.818182 0.991762
vt 0.818182 1.000000
vt 0.213909 0.096845
vt 0.727273 0.982453
vt 0.818182 0.982453
vt 0.727273 0.972147
vt 0.818182 0.972147
vt 0.727273 0.960939
vt 0.818182 0.960939
vt 0.727273 0.948949
vt 0.818182 0.948949
vt 0.727273 0.936273
vt 0.818182 0.936273
vt 0.727273 0.923022
vt 0.818182 0.923022
vt 0.727273 0.909362
vt 0.818182 0.909362
vt 0.727273 0.895405
vt 0.818182 0.895405
vn -1.0000 0.0000 0.0000
vn 0.0000 1.0000 0.0000
vn -0.9988 0.0000 0.0493
vn -0.2429 0.0000 -0.9700
vn 0.8575 0.0000 0.5145
vn 0.9044 0.0000 0.4267
vn -0.9893 0.0000 0.1459
vn 0.9411 0.0000 0.3381
vn -0.9700 0.0000 0.2429
vn -0.3381 0.0000 -0.9411
vn 0.9700 0.0000 0.2429
vn -0.9411 0.0000 0.3381
vn 0.9893 0.0000 0.1459
vn 0.0493 0.0000 0.9988
vn -0.4267 0.0000 -0.9044
vn -0.5145 0.0000 -0.8575
vn 0.4267 0.0000 0.9044
vn 0.5145 0.0000 0.8575
vn -0.5959 0.0000 -0.8030
vn 0.0000 0.0000 -1.0000
vn 1.0000 0.0000 0.0000
vn 0.1459 0.0000 0.9893
vn -0.8575 0.0000 -0.5145
vn 0.0000 -1.0000 0.0000
vn -0.6706 0.0000 -0.7419
vn 0.0000 0.0000 1.0000
vn -0.9044 0.0000 -0.4267
vn -0.7419 0.0000 -0.6706
vn -0.9411 0.0000 -0.3381
vn -0.8030 0.0000 -0.5959
vn -0.9044 0.0000 0.4267
vn 0.2429 0.0000 0.9700
vn -0.8575 0.0000 0.5145
vn 0.3381 0.0000 0.9411
vn 0.9988 0.0000 0.0493
vn -0.8030 0.0000 0.5959
vn 0.9988 0.0000 -0.0493
vn -0.5145 0.0000 0.8575
vn -0.4267 0.0000 0.9044
vn -0.7419 0.0000 0.6706
vn -0.3381 0.0000 0.9411
vn 0.9893 0.0000 -0.1459
vn -0.2429 0.0000 0.9700
vn -0.6706 0.0000 0.7419
vn -0.1459 0.0000 0.9893
vn 0.9700 0.0000 -0.2429
vn -0.0493 0.0000 0.9988
vn -0.5959 0.0000 0.8030
vn 0.9411 0.0000 -0.3381
vn 0.9044 0.0000 -0.4267
vn 0.8575 0.0000 -0.5145
vn -0.9700 0.0000 -0.2429
vn -0.9893 0.0000 -0.1459
vn -0.9988 0.0000 -0.0493
vn 0.5959 0.0000 0.8030
vn 0.6706 0.0000 0.7419
vn 0.8030 0.0000 -0.5959
vn 0.7419 0.0000 -0.6706
vn 0.7419 0.0000 0.6706
vn 0.6706 0.0000 -0.7419
vn 0.5959 0.0000 -0.8030
vn 0.8030 0.0000 0.5959
vn 0.5145 0.0000 -0.8575
vn 0.4267 0.0000 -0.9044
vn 0.3381 0.0000 -0.9411
vn 0.2429 0.0000 -0.9700
vn 0.1459 0.0000 -0.9893
vn 0.0493 0.0000 -0.9988
vn -0.0493 0.0000 -0.9988
vn -0.1459 0.0000 -0.9893
s off
f 1/1/1 2/2/1 3/3/1
f 1/1/1 3/3/1 4/4/1
f 5/5/2 6/6/2 7/7/2
f 8/8/3 9/9/3 10/10/3
f 8/8/3 10/10/3 11/11/3
f 12/12/4 13/13/4 14/14/4
f 12/12/4 14/14/4 15/15/4
f 7/7/2 6/6/2 16/16/2
f 17/17/5 18/18/5 19/19/5
f 17/17/5 19/19/5 20/20/5
f 16/16/2 6/6/2 21/21/2
f 18/18/6 22/22/6 23/23/6
f 18/18/6 23/23/6 19/19/6
f 21/21/2 6/6/2 24/24/2
f 10/10/7 25/25/7 26/26/7
f 10/10/7 26/26/7 11/11/7
f 27/27/2 28/28/2 29/29/2
f 30/30/8 31/31/8 23/23/8
f 30/30/8 23/23/8 22/22/8
f 24/24/2 6/6/2 17/32/2
f 17/32/2 6/6/2 18/33/2
f 18/33/2 6/6/2 22/34/2
f 32/35/2 33/36/2 34/37/2
f 35/38/2 36/39/2 37/40/2
f 38/41/2 37/40/2 36/39/2
f 39/42/2 40/43/2 36/39/2
f 38/41/2 36/39/2 40/43/2
f 6/6/2 41/44/2 30/45/2
f 22/34/2 6/6/2 30/45/2
f 25/25/9 42/46/9 43/47/9
f 25/25/9 43/47/9 26/26/9
f 13/13/10 44/48/10 45/49/10
f 13/13/10 45/49/10 14/14/10
f 41/50/11 46/51/11 31/31/11
f 41/50/11 31/31/11 30/30/11
f 42/46/12 47/52/12 43/47/12
f 5/5/2 48/53/2 6/6/2
f 6/6/2 48/53/2 49/54/2
f 49/54/2 50/55/2 6/6/2
f 29/29/2 28/28/2 51/56/2
f 41/50/13 52/57/13 46/51/13
f 53/58/13 46/51/13 52/57/13
f 54/59/14 55/60/14 56/61/14
f 54/59/14 56/61/14 57/62/14
f 44/48/15 58/63/15 59/64/15
f 44/48/15 59/64/15 45/49/15
f 60/65/2 61/66/2 62/67/2
f 63/68/2 61/66/2 64/69/2
f 58/63/16 65/70/16 66/71/16
f 58/63/16 66/71/16 59/64/16
f 48/72/17 67/73/17 49/74/17
f 62/67/2 61/66/2 68/75/2
f 28/28/2 9/76/2 4/77/2
f 1/78/2 4/77/2 9/76/2
f 9/76/2 61/66/2 1/78/2
f 64/69/2 61/66/2 12/79/2
f 67/73/18 48/72/18 5/80/18
f 65/70/19 69/81/19 70/82/19
f 65/70/19 70/82/19 66/71/19
f 47/83/2 28/28/2 71/84/2
f 45/85/2 72/86/2 14/87/2
f 73/88/2 74/89/2 72/86/2
f 14/87/2 72/86/2 15/90/2
f 59/91/2 75/92/2 45/85/2
f 66/93/2 75/92/2 59/91/2
f 70/94/2 75/92/2 66/93/2
f 76/95/2 75/92/2 70/94/2
f 77/96/2 75/92/2 76/95/2
f 78/97/2 53/98/2 77/96/2
f 15/90/2 72/86/2 79/99/2
f 79/99/2 72/86/2 80/100/2
f 81/101/2 72/86/2 74/89/2
f 82/102/2 72/86/2 81/101/2
f 80/100/2 72/86/2 82/102/2
f 61/103/20 83/104/20 2/105/20
f 61/103/20 2/105/20 1/106/20
f 12/79/2 61/66/2 13/107/2
f 83/108/21 6/109/21 84/110/21
f 85/111/21 84/110/21 6/109/21
f 71/84/2 28/28/2 86/112/2
f 13/107/2 61/66/2 44/113/2
f 86/112/2 28/28/2 87/114/2
f 88/115/22 89/116/22 57/62/22
f 88/115/22 57/62/22 56/61/22
f 87/114/2 28/28/2 90/117/2
f 61/66/2 91/118/2 92/119/2
f 92/119/2 68/75/2 61/66/2
f 44/113/2 61/66/2 58/120/2
f 60/121/23 62/122/23 93/123/23
f 94/124/2 51/56/2 28/28/2
f 90/117/2 28/28/2 27/27/2
f 4/77/2 85/125/2 55/126/2
f 95/127/2 4/77/2 55/126/2
f 28/28/2 4/77/2 95/127/2
f 6/6/2 55/126/2 85/125/2
f 96/128/2 36/39/2 97/129/2
f 98/130/2 97/129/2 36/39/2
f 72/86/2 98/130/2 36/39/2
f 99/131/2 36/39/2 96/128/2
f 39/42/2 36/39/2 99/131/2
f 36/39/2 73/88/2 72/86/2
f 75/92/2 72/86/2 45/85/2
f 75/92/2 77/96/2 53/98/2
f 91/118/2 61/66/2 100/132/2
f 3/133/24 2/134/24 83/135/24
f 84/136/24 3/133/24 83/135/24
f 69/81/25 101/137/25 76/138/25
f 69/81/25 76/138/25 70/82/25
f 58/120/2 61/66/2 65/139/2
f 84/140/26 85/141/26 3/142/26
f 4/143/26 3/142/26 85/141/26
f 62/144/27 68/145/27 102/146/27
f 62/144/27 102/146/27 93/147/27
f 61/66/2 9/76/2 103/148/2
f 61/66/2 103/148/2 100/132/2
f 83/108/21 33/149/21 6/109/21
f 65/139/2 61/66/2 69/150/2
f 101/137/28 104/151/28 77/152/28
f 101/137/28 77/152/28 76/138/28
f 68/145/29 92/153/29 102/146/29
f 61/103/20 33/154/20 83/104/20
f 47/83/2 42/155/2 28/28/2
f 9/76/2 28/28/2 10/156/2
f 104/151/30 105/157/30 78/158/30
f 104/151/30 78/158/30 77/152/30
f 69/150/2 61/66/2 101/159/2
f 47/52/12 71/160/12 106/161/12
f 47/52/12 106/161/12 43/47/12
f 46/162/2 93/163/2 31/164/2
f 53/98/2 93/163/2 46/162/2
f 23/165/2 31/164/2 93/163/2
f 67/166/2 107/167/2 93/163/2
f 107/167/2 108/168/2 93/163/2
f 108/168/2 109/169/2 93/163/2
f 109/169/2 110/170/2 93/163/2
f 110/170/2 20/171/2 93/163/2
f 20/171/2 19/172/2 93/163/2
f 23/165/2 93/163/2 19/172/2
f 10/156/2 28/28/2 25/173/2
f 33/36/2 111/174/2 6/6/2
f 112/175/2 113/176/2 6/6/2
f 93/123/23 78/158/23 60/121/23
f 105/157/23 60/121/23 78/158/23
f 101/159/2 61/66/2 104/177/2
f 61/66/2 63/68/2 114/178/2
f 115/179/2 33/36/2 114/178/2
f 115/179/2 34/37/2 33/36/2
f 61/66/2 114/178/2 33/36/2
f 71/160/31 86/180/31 116/181/31
f 71/160/31 116/181/31 106/161/31
f 25/173/2 28/28/2 42/155/2
f 52/57/13 113/182/13 53/58/13
f 117/183/32 118/184/32 89/116/32
f 117/183/32 89/116/32 88/115/32
f 105/185/2 61/66/2 60/65/2
f 104/177/2 61/66/2 105/185/2
f 86/180/33 87/186/33 119/187/33
f 86/180/33 119/187/33 116/181/33
f 50/188/34 120/189/34 118/184/34
f 50/188/34 118/184/34 117/183/34
f 113/182/35 112/190/35 75/191/35
f 113/182/35 75/191/35 53/58/35
f 121/192/2 122/193/2 33/36/2
f 123/194/2 124/195/2 33/36/2
f 121/192/2 33/36/2 125/196/2
f 50/188/17 49/74/17 120/189/17
f 67/73/17 120/189/17 49/74/17
f 88/197/2 56/198/2 6/6/2
f 55/126/2 6/6/2 56/198/2
f 87/186/36 90/199/36 126/200/36
f 87/186/36 126/200/36 119/187/36
f 125/196/2 33/36/2 124/195/2
f 111/201/37 72/202/37 75/191/37
f 111/201/37 75/191/37 112/190/37
f 127/203/38 128/204/38 94/205/38
f 113/176/2 52/206/2 6/6/2
f 52/206/2 41/44/2 6/6/2
f 129/207/39 130/208/39 128/204/39
f 129/207/39 128/204/39 127/203/39
f 90/199/40 27/209/40 131/210/40
f 90/199/40 131/210/40 126/200/40
f 132/211/41 133/212/41 130/208/41
f 132/211/41 130/208/41 129/207/41
f 88/197/2 6/6/2 117/213/2
f 123/194/2 33/36/2 134/214/2
f 135/215/42 98/216/42 72/202/42
f 135/215/42 72/202/42 111/201/42
f 136/217/43 137/218/43 133/212/43
f 136/217/43 133/212/43 132/211/43
f 29/219/44 138/220/44 131/210/44
f 29/219/44 131/210/44 27/209/44
f 117/213/2 6/6/2 50/55/2
f 139/221/45 140/222/45 137/218/45
f 139/221/45 137/218/45 136/217/45
f 141/223/2 135/224/2 33/36/2
f 112/175/2 6/6/2 111/174/2
f 134/214/2 33/36/2 142/225/2
f 141/226/46 97/227/46 98/216/46
f 141/226/46 98/216/46 135/215/46
f 55/60/47 54/59/47 140/222/47
f 55/60/47 140/222/47 139/221/47
f 51/228/48 143/229/48 138/220/48
f 51/228/48 138/220/48 29/219/48
f 144/230/2 33/36/2 32/35/2
f 142/225/2 33/36/2 144/230/2
f 141/223/2 33/36/2 122/193/2
f 111/174/2 33/36/2 135/224/2
f 122/231/49 96/232/49 97/227/49
f 122/231/49 97/227/49 141/226/49
f 43/233/2 106/234/2 102/235/2
f 93/163/2 102/235/2 106/234/2
f 93/163/2 106/234/2 116/236/2
f 93/163/2 116/236/2 119/237/2
f 93/163/2 119/237/2 126/238/2
f 93/163/2 126/238/2 131/239/2
f 93/163/2 131/239/2 138/240/2
f 93/163/2 138/240/2 143/241/2
f 93/163/2 143/241/2 128/242/2
f 128/242/2 130/243/2 93/163/2
f 93/163/2 53/98/2 78/97/2
f 51/244/38 94/205/38 143/245/38
f 128/204/38 143/245/38 94/205/38
f 121/246/50 99/247/50 96/232/50
f 121/246/50 96/232/50 122/231/50
f 92/153/29 91/248/29 145/249/29
f 92/153/29 145/249/29 102/146/29
f 121/246/51 125/250/51 99/247/51
f 39/251/51 99/247/51 125/250/51
f 91/248/52 100/252/52 146/253/52
f 91/248/52 146/253/52 145/249/52
f 100/252/53 103/254/53 147/255/53
f 100/252/53 147/255/53 146/253/53
f 129/256/2 28/28/2 95/127/2
f 94/124/2 28/28/2 127/257/2
f 43/233/2 102/235/2 26/258/2
f 11/259/2 26/258/2 102/235/2
f 8/260/2 11/259/2 102/235/2
f 145/261/2 146/262/2 102/235/2
f 147/263/2 102/235/2 146/262/2
f 8/260/2 102/235/2 147/263/2
f 5/80/18 7/264/18 107/265/18
f 5/80/18 107/265/18 67/73/18
f 103/254/54 9/9/54 8/8/54
f 103/254/54 8/8/54 147/255/54
f 127/257/2 28/28/2 129/256/2
f 7/264/55 16/266/55 108/267/55
f 7/264/55 108/267/55 107/265/55
f 129/256/2 95/127/2 132/268/2
f 57/269/2 93/163/2 54/270/2
f 89/271/2 93/163/2 57/269/2
f 118/272/2 93/163/2 89/271/2
f 120/273/2 93/163/2 118/272/2
f 67/166/2 93/163/2 120/273/2
f 140/274/2 54/270/2 93/163/2
f 130/243/2 133/275/2 93/163/2
f 137/276/2 93/163/2 133/275/2
f 140/274/2 93/163/2 137/276/2
f 16/266/56 21/277/56 109/278/56
f 16/266/56 109/278/56 108/267/56
f 132/268/2 95/127/2 136/279/2
f 125/250/57 124/280/57 40/281/57
f 125/250/57 40/281/57 39/251/57
f 124/280/58 123/282/58 38/283/58
f 124/280/58 38/283/58 40/281/58
f 21/284/59 24/285/59 110/286/59
f 21/284/59 110/286/59 109/287/59
f 123/288/60 134/289/60 37/290/60
f 123/288/60 37/290/60 38/291/60
f 95/127/2 55/126/2 139/292/2
f 95/127/2 139/292/2 136/279/2
f 134/289/61 142/293/61 35/294/61
f 134/289/61 35/294/61 37/290/61
f 24/285/62 17/17/62 20/20/62
f 24/285/62 20/20/62 110/286/62
f 142/293/63 144/295/63 36/296/63
f 142/293/63 36/296/63 35/294/63
f 144/295/64 32/297/64 36/296/64
f 32/297/64 73/298/64 36/296/64
f 32/297/65 34/299/65 74/300/65
f 32/297/65 74/300/65 73/298/65
f 34/299/66 115/301/66 81/302/66
f 34/299/66 81/302/66 74/300/66
f 115/301/67 114/303/67 82/304/67
f 115/301/67 82/304/67 81/302/67
f 114/303/68 63/305/68 80/306/68
f 114/303/68 80/306/68 82/304/68
f 63/305/69 64/307/69 79/308/69
f 63/305/69 79/308/69 80/306/69
f 64/307/70 12/12/70 15/15/70
f 64/307/70 15/15/70 79/308/70
